<svg id="logo" width="716" height="98" viewBox="0 0 716 98" fill="none" xmlns="http://www.w3.org/2000/svg">
            <path d="M115.25 3.40625C115.688 4.15625 115.906 4.875 115.906 5.5625C114.469 5.9375 113.188 6.375 112.062 6.875C111 7.3125 110.031 7.84375 109.156 8.46875C108.281 9.03125 107.469 9.75 106.719 10.625C106.031 11.4375 105.344 12.4062 104.656 13.5312C104.281 14.0938 103.844 14.5312 103.344 14.8438C102.906 15.1562 102.531 15.625 102.219 16.25C101.781 17.0625 101.438 17.9688 101.188 18.9688C100.938 19.9062 100.688 20.875 100.438 21.875C100.312 22.1875 100.188 22.5312 100.062 22.9062C99.9375 23.2188 99.8125 23.5312 99.6875 23.8438C99.5625 24.5312 99.5312 25.1875 99.5938 25.8125C99.6562 26.4375 99.5625 27.0625 99.3125 27.6875C99.125 28.1875 98.875 28.5938 98.5625 28.9062C98.25 29.2188 98 29.5625 97.8125 29.9375C97.3125 30.8125 96.9688 31.7812 96.7812 32.8438C96.6562 33.9062 96.5312 35.0312 96.4062 36.2188C96.3438 36.5938 96.2188 36.9375 96.0312 37.25C95.9062 37.5625 95.7812 37.9062 95.6562 38.2812C95.5312 38.7812 95.4375 39.2812 95.375 39.7812C95.3125 40.2188 95.2188 40.6875 95.0938 41.1875C94.6562 42.4375 94.1875 43.7188 93.6875 45.0312C93.25 46.2812 92.9375 47.5312 92.75 48.7812C92.625 49.4688 92.5625 50.1562 92.5625 50.8438C92.625 51.4688 92.5938 52.125 92.4688 52.8125C92.1562 54.625 91.7188 56.375 91.1562 58.0625C90.5938 59.6875 90.0625 61.2812 89.5625 62.8438C89.25 63.9688 89 65.0312 88.8125 66.0312C88.6875 66.9688 88.4375 67.9688 88.0625 69.0312C87.8125 69.5938 87.625 70.125 87.5 70.625C87.375 71.0625 87.125 71.5 86.75 71.9375C86.375 72.375 85.8438 72.7188 85.1562 72.9688C84.4688 73.2188 83.75 73.4375 83 73.625C82.25 73.8125 81.5 73.9688 80.75 74.0938C80.0625 74.2812 79.4375 74.4688 78.875 74.6562C78.3125 74.9062 77.8438 75.25 77.4688 75.6875C77.0938 76.1875 76.6875 76.625 76.25 77C75.8125 77.4375 75.3125 77.7188 74.75 77.8438C74.25 78.0312 73.5625 77.9375 72.6875 77.5625C72.625 76.8125 72.5938 75.9688 72.5938 75.0312C72.6562 74.0938 72.75 73.25 72.875 72.5C73.0625 71.4375 73.375 70.5 73.8125 69.6875C74.3125 68.875 74.7812 68 75.2188 67.0625C75.9062 65.4375 76.3438 63.875 76.5312 62.375C76.7188 60.875 77.125 59.3125 77.75 57.6875C78.3125 57.3125 78.6875 56.9062 78.875 56.4688C79.0625 56.0312 79.1562 55.5625 79.1562 55.0625C79.2188 54.5 79.2188 53.9062 79.1562 53.2812C79.0938 52.6562 79.125 51.9688 79.25 51.2188C79.3125 50.4688 79.5 49.7188 79.8125 48.9688C80.125 48.2188 80.3438 47.4375 80.4688 46.625C80.5938 45.9375 80.6562 45.4062 80.6562 45.0312C80.7188 44.5938 80.75 44.2188 80.75 43.9062C80.8125 43.5938 80.875 43.2812 80.9375 42.9688C81.0625 42.5938 81.2188 42.125 81.4062 41.5625C81.6562 41 81.9375 40.4375 82.25 39.875C82.5625 39.3125 82.8438 38.7188 83.0938 38.0938C83.5938 36.4688 83.9688 34.75 84.2188 32.9375C84.4688 31.125 84.7188 29.3438 84.9688 27.5938C85.0938 26.5312 85.2812 25.3438 85.5312 24.0312C85.8438 22.7188 85.9375 21.5312 85.8125 20.4688C85.5625 20.4688 85.0938 20.8438 84.4062 21.5938C83.7812 22.3438 83 23.3438 82.0625 24.5938C81.1875 25.7812 80.1875 27.1562 79.0625 28.7188C78 30.2188 76.9375 31.7812 75.875 33.4062C74.875 34.9688 73.9062 36.4688 72.9688 37.9062C72.0938 39.2812 71.375 40.4688 70.8125 41.4688C69.875 42.0312 69.1562 42.6875 68.6562 43.4375C68.2188 44.125 67.8438 44.875 67.5312 45.6875C67.2188 46.5 66.9062 47.375 66.5938 48.3125C66.2812 49.1875 65.8125 50.0938 65.1875 51.0312C64.6875 52.9688 63.8438 54.875 62.6562 56.75C61.4688 58.625 60.5 60.4688 59.75 62.2812C59.5625 62.7812 59.375 63.25 59.1875 63.6875C59.0625 64.0625 58.8438 64.5 58.5312 65C58.0312 66.25 57.4375 67.4688 56.75 68.6562C56.125 69.7812 55.4688 70.9688 54.7812 72.2188C54.0312 73.4688 53.1875 74.625 52.25 75.6875C51.875 76.1875 51.5625 76.8438 51.3125 77.6562C51.125 78.4688 50.8125 78.9375 50.375 79.0625C49.8125 79.1875 49.2188 79.0938 48.5938 78.7812C47.9688 78.5312 47.375 78.3438 46.8125 78.2188C45.6875 76.5938 45.0312 74.9688 44.8438 73.3438C44.8438 72.9062 44.9062 72.5 45.0312 72.125C45.1562 71.6875 45.1875 71.2812 45.125 70.9062C45.0625 70.2188 44.7812 69.4688 44.2812 68.6562C43.7812 67.7812 43.4688 66.9062 43.3438 66.0312C43.0938 64.9688 43.0938 63.9688 43.3438 63.0312C43.5938 62.0312 43.5938 61.125 43.3438 60.3125C43.2188 59.9375 42.9688 59.625 42.5938 59.375C42.2812 59.0625 42.0625 58.75 41.9375 58.4375C41.8125 58 41.75 57.5 41.75 56.9375C41.8125 56.375 41.8125 55.8125 41.75 55.25C41.5625 54.1875 41.25 53 40.8125 51.6875C40.4375 50.375 40.0938 49.0625 39.7812 47.75C39.4688 46.8125 39.0312 45.7188 38.4688 44.4688C37.9688 43.2188 37.6562 42.0312 37.5312 40.9062C37.4688 40.2812 37.4062 39.7188 37.3438 39.2188C37.3438 38.6562 37.3125 38.125 37.25 37.625C37.125 36.5 36.8438 35.2812 36.4062 33.9688C35.9688 32.6562 35.5 31.3438 35 30.0312C34.5625 28.7188 34.1562 27.4062 33.7812 26.0938C33.4688 24.7812 33.3125 23.5 33.3125 22.25C33 22.375 32.7188 22.6562 32.4688 23.0938C32.2188 23.5312 31.9688 24.0625 31.7188 24.6875C31.4688 25.3125 31.25 25.9375 31.0625 26.5625C30.875 27.1875 30.7188 27.6875 30.5938 28.0625C30.4062 28.375 30.1562 28.7188 29.8438 29.0938C29.5312 29.4688 29.3438 29.9062 29.2812 30.4062C29.2188 30.6562 29.25 30.9375 29.375 31.25C29.5625 31.5625 29.6562 31.9062 29.6562 32.2812C29.7188 33.2812 29.5312 34.3438 29.0938 35.4688C28.6562 36.5312 28.2812 37.5938 27.9688 38.6562C27.6562 39.9062 27.4062 41.2188 27.2188 42.5938C27.0312 43.9062 26.6562 45.2812 26.0938 46.7188C25.5938 48.0938 25.1875 49.5 24.875 50.9375C24.625 52.3125 24.3438 53.5625 24.0312 54.6875C23.9062 55.5 23.8438 56.3125 23.8438 57.125C23.8438 57.9375 23.7188 58.5938 23.4688 59.0938C23.1562 59.7188 22.625 60.2188 21.875 60.5938C21.1875 60.9688 20.75 61.5 20.5625 62.1875C20.5 63.5 20.2188 65 19.7188 66.6875C19.2188 68.375 18.7812 69.9375 18.4062 71.375C18.2812 71.9375 18.1875 72.5312 18.125 73.1562C18.0625 73.7188 17.9375 74.2188 17.75 74.6562C17.625 75.1562 17.375 75.5625 17 75.875C16.6875 76.25 16.1875 76.4688 15.5 76.5312C14.3125 76.6562 13.125 76.375 11.9375 75.6875C10.8125 75 10.125 74.2812 9.875 73.5312C9.75 73.0312 9.75 72.5312 9.875 72.0312C10 71.4688 10.0625 70.9375 10.0625 70.4375C9.25 70.9375 8.625 71.1875 8.1875 71.1875C7.8125 71.1875 7.46875 71.0625 7.15625 70.8125C6.84375 70.5 6.5 70.125 6.125 69.6875C5.75 69.1875 5.25 68.7188 4.625 68.2812C4 67.7812 3.53125 67.5 3.21875 67.4375C2.90625 67.3125 2.6875 66.8125 2.5625 65.9375C2.4375 65 2.5 64.0938 2.75 63.2188C3 62.3438 3.3125 61.625 3.6875 61.0625C3.875 60.6875 4.125 60.375 4.4375 60.125C4.75 59.8125 5 59.5 5.1875 59.1875C5.4375 58.6875 5.4375 58 5.1875 57.125C5 56.1875 5.0625 55.375 5.375 54.6875C5.8125 53.75 6.28125 52.875 6.78125 52.0625C7.28125 51.1875 7.5625 50.125 7.625 48.875C7.6875 48.375 7.65625 47.8438 7.53125 47.2812C7.40625 46.7188 7.40625 46.1875 7.53125 45.6875C7.59375 45.1875 7.6875 44.6875 7.8125 44.1875C8 43.625 8.1875 43 8.375 42.3125C8.5625 41.375 8.90625 40.375 9.40625 39.3125C9.90625 38.25 10.3125 37.0938 10.625 35.8438C10.875 35.3438 11.0938 34.8438 11.2812 34.3438C11.4688 33.7812 11.6562 33.25 11.8438 32.75C12.2188 31.6875 12.4688 30.6562 12.5938 29.6562C12.7812 28.5938 13.0312 27.5625 13.3438 26.5625C13.4688 26.1875 13.6562 25.875 13.9062 25.625C14.2188 25.3125 14.4375 25 14.5625 24.6875C15.0625 23.625 15.3125 22.5312 15.3125 21.4062C15.3125 20.2188 15.4375 19 15.6875 17.75C15.875 16.5625 16.0938 15.5 16.3438 14.5625C16.6562 13.5625 16.9062 12.6562 17.0938 11.8438C17.2812 10.9688 17.3125 10.1562 17.1875 9.40625C17.125 8.65625 16.8125 7.875 16.25 7.0625C15.9375 6.625 15.5938 6.3125 15.2188 6.125C14.9062 5.9375 14.7188 5.6875 14.6562 5.375C14.6562 4.625 14.9375 4.21875 15.5 4.15625C16.125 4.03125 16.8125 4.0625 17.5625 4.25C18.3125 4.4375 19.0312 4.6875 19.7188 5C20.4688 5.25 20.9375 5.40625 21.125 5.46875C21.4375 5.53125 21.8125 5.53125 22.25 5.46875C22.6875 5.40625 23.1562 5.4375 23.6562 5.5625C24.2188 5.625 24.7812 5.71875 25.3438 5.84375C25.9062 5.96875 26.4062 6.0625 26.8438 6.125C27.8438 6.125 28.5625 6.125 29 6.125C29.4375 6.0625 30.125 6 31.0625 5.9375C31.9375 5.875 33 5.875 34.25 5.9375C35.5625 6 36.6875 5.96875 37.625 5.84375C38.4375 5.78125 39.4375 5.65625 40.625 5.46875C41.875 5.28125 43.0625 5.125 44.1875 5C45.375 4.875 46.4062 4.875 47.2812 5C48.2188 5.0625 48.75 5.375 48.875 5.9375C49.0625 6.625 48.875 7.25 48.3125 7.8125C47.8125 8.3125 47.5 8.84375 47.375 9.40625C47.25 10.9062 47.0938 12.5938 46.9062 14.4688C46.7188 16.2812 46.7188 17.8125 46.9062 19.0625C47.0312 19.75 47.0625 20.4375 47 21.125C46.9375 21.75 47 22.3125 47.1875 22.8125C47.5625 24.1875 47.8438 25.5 48.0312 26.75C48.0938 27.5 48.375 28.2188 48.875 28.9062C49.4375 29.5312 49.6875 30.1875 49.625 30.875C49.5625 31.75 49.7188 32.6562 50.0938 33.5938C50.5312 34.4688 50.7812 35.4062 50.8438 36.4062C50.9688 37.4062 51.0312 38.4375 51.0312 39.5C51.0938 40.5625 51.4375 41.5312 52.0625 42.4062C52.6875 41.9062 53.0625 41.2812 53.1875 40.5312C53.375 39.7812 53.625 39.0625 53.9375 38.375C54.0625 38.0625 54.25 37.7812 54.5 37.5312C54.8125 37.2188 55.0938 36.9062 55.3438 36.5938C56.0312 35.1562 56.875 33.6562 57.875 32.0938C58.9375 30.4688 59.8438 28.8438 60.5938 27.2188C61.4062 25.6562 62.1875 24.0938 62.9375 22.5312C63.6875 20.9062 64.4062 19.2812 65.0938 17.6562C65.2188 17.4062 65.4375 17.125 65.75 16.8125C66.125 16.5 66.5 16.1875 66.875 15.875C67.25 15.5625 67.5938 15.2812 67.9062 15.0312C68.2812 14.7188 68.5625 14.4062 68.75 14.0938C69.6875 12.3438 70.4688 10.8438 71.0938 9.59375C71.7812 8.28125 72.2812 6.65625 72.5938 4.71875C73.7188 4.65625 74.7812 4.6875 75.7812 4.8125C76.8438 4.9375 78 5.09375 79.25 5.28125C79.75 5.40625 80.1875 5.5625 80.5625 5.75C81 5.9375 81.4375 6.0625 81.875 6.125C82.75 6.25 83.4375 6.28125 83.9375 6.21875C84.5 6.15625 84.9688 6.09375 85.3438 6.03125C85.7812 5.90625 86.1875 5.84375 86.5625 5.84375C87 5.78125 87.5938 5.875 88.3438 6.125C90.4688 6.125 92.6562 5.96875 94.9062 5.65625C97.1562 5.34375 99.4062 5.03125 101.656 4.71875C103.969 4.34375 106.25 4.03125 108.5 3.78125C110.812 3.53125 113.062 3.40625 115.25 3.40625Z" stroke="#00610A" stroke-width="5"/>
            <path d="M123.5 31.25C124.688 30.4375 125.719 29.5 126.594 28.4375C127.469 27.375 128.312 26.3125 129.125 25.25C129.625 25.3125 130.062 25.2188 130.438 24.9688C130.812 24.7188 131.219 24.5312 131.656 24.4062C132.531 24.1562 133.406 24.1875 134.281 24.5C135.219 24.75 136.125 24.8438 137 24.7812C138.062 24.6562 139.062 24.375 140 23.9375C141 23.5 142.156 23.2812 143.469 23.2812C143.906 23.2812 144.312 23.4375 144.688 23.75C145.062 24 145.438 24.1562 145.812 24.2188C146.312 24.3438 146.75 24.2812 147.125 24.0312C147.562 23.7812 148.031 23.6562 148.531 23.6562C149.406 23.6562 150.062 23.9375 150.5 24.5C151 25.0625 151.562 25.625 152.188 26.1875C152.5 27.625 152.531 29.0312 152.281 30.4062C152.031 31.7812 151.969 33.1875 152.094 34.625C152.219 35.5625 152.344 36.4688 152.469 37.3438C152.656 38.2188 152.75 39.125 152.75 40.0625C152.812 40.875 152.75 41.75 152.562 42.6875C152.438 43.5625 152.406 44.4375 152.469 45.3125C152.531 45.625 152.625 45.9375 152.75 46.25C152.875 46.5625 152.906 46.875 152.844 47.1875C152.719 47.875 152.438 48.4062 152 48.7812C151.562 49.1562 151.312 49.6562 151.25 50.2812C151.125 51.2188 151.312 52.0938 151.812 52.9062C152.375 53.7188 152.719 54.5625 152.844 55.4375C152.906 55.8125 152.875 56.2188 152.75 56.6562C152.625 57.0938 152.562 57.5 152.562 57.875C152.438 59.25 152.438 60.7812 152.562 62.4688C152.75 64.1562 152.875 65.7188 152.938 67.1562C152.938 67.6562 152.969 68.1562 153.031 68.6562C153.156 69.1562 153.156 69.5625 153.031 69.875C152.969 70.1875 152.812 70.4375 152.562 70.625C152.375 70.8125 152.219 71.0312 152.094 71.2812C152.031 71.5938 152.031 72.0312 152.094 72.5938C152.219 73.1562 152.281 73.6875 152.281 74.1875C152.281 74.625 152.25 75.0312 152.188 75.4062C152.125 75.8438 152.094 76.2188 152.094 76.5312C152.156 76.7188 152.219 76.9062 152.281 77.0938C152.406 77.3438 152.438 77.5625 152.375 77.75C152.25 78.3125 151.812 78.9062 151.062 79.5312C150.375 80.2188 149.656 80.5312 148.906 80.4688C148.531 80.4062 147.969 80.0938 147.219 79.5312C146.531 79.0312 146.031 78.625 145.719 78.3125C145.156 77.625 144.812 76.75 144.688 75.6875C144.562 74.625 144.281 73.6562 143.844 72.7812C143.656 72.4688 143.375 72.1875 143 71.9375C142.688 71.625 142.406 71.2812 142.156 70.9062C141.781 70.2188 141.531 69.5312 141.406 68.8438C141.281 68.0938 141.188 67.375 141.125 66.6875C141.125 65.9375 141.094 65.2188 141.031 64.5312C140.969 63.7812 140.812 63.0312 140.562 62.2812C140.438 62.0312 140.25 61.8125 140 61.625C139.75 61.4375 139.531 61.1875 139.344 60.875C138.969 60.25 138.719 59.7188 138.594 59.2812C138.469 58.8438 138.062 58.5 137.375 58.25C135.188 58.25 132.969 58.1875 130.719 58.0625C128.531 57.9375 126.375 58 124.25 58.25C123.75 58.3125 123.312 58.4375 122.938 58.625C122.562 58.75 122.125 58.8438 121.625 58.9062C121.375 58.9062 121.125 58.875 120.875 58.8125C120.625 58.75 120.406 58.7188 120.219 58.7188C119.344 58.8438 118.5 59.25 117.688 59.9375C116.875 60.5625 116.25 61.1875 115.812 61.8125C115.562 62.1875 115.406 62.6562 115.344 63.2188C115.344 63.7188 115.25 64.2188 115.062 64.7188C114.875 65.2188 114.562 65.6875 114.125 66.125C113.688 66.5 113.531 67 113.656 67.625C112.969 68.125 112.375 68.75 111.875 69.5C111.438 70.25 111 71.0312 110.562 71.8438C110.125 72.5938 109.625 73.3125 109.062 74C108.562 74.6875 107.938 75.1875 107.188 75.5C106.875 75.625 106.562 75.7812 106.25 75.9688C106 76.1562 105.719 76.25 105.406 76.25C105.094 76.1875 104.906 76.0938 104.844 75.9688C104.844 75.8438 104.656 75.6562 104.281 75.4062C103.906 75.1562 103.469 74.875 102.969 74.5625C102.406 74.25 101.875 73.9062 101.375 73.5312C100.875 73.1562 100.438 72.7812 100.062 72.4062C99.625 71.9688 99.3125 71.5625 99.125 71.1875C98.625 70.125 98.5312 69.375 98.8438 68.9375C99.1562 68.4375 99.5625 67.8438 100.062 67.1562C100.75 66.1562 101.531 65.0312 102.406 63.7812C103.281 62.5312 104.062 61.3438 104.75 60.2188C105.125 59.5938 105.438 59 105.688 58.4375C106 57.875 106.375 57.3438 106.812 56.8438C107.312 56.1562 107.938 55.5938 108.688 55.1562C109.5 54.7188 110.062 54.1562 110.375 53.4688C110.5 53.1562 110.562 52.8438 110.562 52.5312C110.562 52.1562 110.625 51.7812 110.75 51.4062C111.25 50.1562 112.031 49.0312 113.094 48.0312C114.156 47.0312 114.969 45.9062 115.531 44.6562C115.656 44.3438 115.719 44.0625 115.719 43.8125C115.781 43.5 115.875 43.1875 116 42.875C117 40.5625 118.219 38.5 119.656 36.6875C121.156 34.875 122.438 33.0625 123.5 31.25ZM136.625 30.9688C135.875 31.5312 135.219 32.1875 134.656 32.9375C134.156 33.625 133.469 34.1562 132.594 34.5312C132.344 35.0938 132.031 35.625 131.656 36.125C131.344 36.625 130.906 37.0312 130.344 37.3438C130.156 38.3438 129.781 39.2188 129.219 39.9688C128.656 40.6562 128.125 41.3438 127.625 42.0312C127.375 42.2812 127.156 42.5625 126.969 42.875C126.781 43.125 126.562 43.4062 126.312 43.7188C126 44.0312 125.688 44.2812 125.375 44.4688C125.062 44.5938 124.781 44.7812 124.531 45.0312C124.156 45.5312 123.75 46.2188 123.312 47.0938C122.875 47.9688 122.469 48.6875 122.094 49.25C121.781 49.5625 121.469 49.875 121.156 50.1875C120.844 50.5 120.75 50.9062 120.875 51.4062C121.062 51.9062 121.438 52.25 122 52.4375C122.562 52.5625 123.188 52.6562 123.875 52.7188C124.625 52.7188 125.344 52.6875 126.031 52.625C126.719 52.5625 127.281 52.5312 127.719 52.5312C128.594 52.5312 129.469 52.5625 130.344 52.625C131.281 52.625 132.156 52.5938 132.969 52.5312C133.844 52.4688 134.594 52.3125 135.219 52.0625C135.906 51.8125 136.438 51.4375 136.812 50.9375C137.438 48.9375 137.594 46.9375 137.281 44.9375C136.969 42.875 136.688 40.8438 136.438 38.8438C136.312 38.2812 136.219 37.6562 136.156 36.9688C136.094 36.2812 136.094 35.6562 136.156 35.0938C136.219 34.4688 136.406 33.875 136.719 33.3125C137.094 32.6875 137.156 31.9688 136.906 31.1562L136.625 30.9688Z" stroke="#00610A" stroke-width="5"/>
            <path d="M211.625 24.9688C211.5 25.9688 211.125 26.5938 210.5 26.8438C209.938 27.0938 209.344 27.375 208.719 27.6875C208.281 28 207.969 28.4062 207.781 28.9062C207.594 29.4062 207.344 29.7812 207.031 30.0312C206.719 30.3438 206.25 30.5938 205.625 30.7812C205.062 30.9062 204.594 31.0312 204.219 31.1562C203.156 31.4688 202.031 31.625 200.844 31.625C199.719 31.625 198.719 31.6875 197.844 31.8125C197.344 31.9375 196.844 32.2188 196.344 32.6562C195.844 33.0938 195.312 33.4375 194.75 33.6875C194.188 33.875 193.75 34.0312 193.438 34.1562C193.125 34.2812 192.844 34.4375 192.594 34.625C192.406 34.8125 192.219 35.0625 192.031 35.375C191.844 35.625 191.594 36 191.281 36.5C190.969 37.0625 190.812 37.875 190.812 38.9375C190.812 40 190.719 40.875 190.531 41.5625C190.344 42.125 190.125 42.7812 189.875 43.5312C189.688 44.2812 189.469 45.0938 189.219 45.9688C189.094 46.4688 189.031 47.0312 189.031 47.6562C189.031 48.2188 188.969 48.75 188.844 49.25C188.656 49.875 188.344 50.3438 187.906 50.6562C187.531 50.9688 187.25 51.5312 187.062 52.3438C186.938 52.7188 186.875 53.125 186.875 53.5625C186.938 53.9375 186.938 54.3125 186.875 54.6875C186.625 56.1875 186.312 57.8125 185.938 59.5625C185.625 61.3125 185.312 63.0312 185 64.7188C184.688 66.1562 184.344 67.5312 183.969 68.8438C183.656 70.1562 183.25 71.375 182.75 72.5C182.25 72.4375 181.75 72.5938 181.25 72.9688C180.75 73.2812 180.25 73.5 179.75 73.625C179.312 73.75 178.875 73.8125 178.438 73.8125C178.062 73.8125 177.688 73.9688 177.312 74.2812C176.875 74.7188 176.312 75.2812 175.625 75.9688C174.938 76.7188 174.344 77.1562 173.844 77.2812C173.406 77.4062 173 77.4062 172.625 77.2812C172.312 77.1562 172 77.0625 171.688 77C171.188 77 170.688 77 170.188 77C169.75 77.0625 169.219 77.0625 168.594 77C168.344 76.375 168.25 75.6875 168.312 74.9375C168.375 74.25 168.5 73.5625 168.688 72.875C168.938 72.1875 169.188 71.5312 169.438 70.9062C169.75 70.2188 169.969 69.5625 170.094 68.9375C170.219 68.5 170.281 68.0312 170.281 67.5312C170.344 67.0312 170.469 66.5312 170.656 66.0312C170.844 65.4688 171.125 64.9688 171.5 64.5312C171.938 64.0312 172.25 63.4688 172.438 62.8438C172.688 62.1562 173 61.3438 173.375 60.4062C173.75 59.4688 173.969 58.6875 174.031 58.0625C174.156 57.3125 174.125 56.5938 173.938 55.9062C173.812 55.2188 173.875 54.4688 174.125 53.6562C174.25 53.2812 174.406 52.9688 174.594 52.7188C174.844 52.4062 175.031 52 175.156 51.5C175.344 50.8125 175.469 50.0938 175.531 49.3438C175.594 48.5312 175.688 47.75 175.812 47C175.938 46.3125 176.062 45.6562 176.188 45.0312C176.312 44.3438 176.469 43.6562 176.656 42.9688C176.844 42.1562 177.031 41.4062 177.219 40.7188C177.469 39.9688 177.656 39.25 177.781 38.5625C177.969 37.875 178.062 37.2188 178.062 36.5938C178.062 35.9062 177.875 35.1875 177.5 34.4375C177.125 33.75 176.625 33.25 176 32.9375C175.375 32.625 174.688 32.4375 173.938 32.375C173.188 32.3125 172.375 32.3125 171.5 32.375C170.625 32.4375 169.781 32.4688 168.969 32.4688C168.656 32.2812 168.375 31.9375 168.125 31.4375C167.875 30.9375 167.531 30.5938 167.094 30.4062C166.344 30.1562 165.5 30.0312 164.562 30.0312C163.688 30.0312 163.031 29.6875 162.594 29C162.219 28.0625 162.188 27.1562 162.5 26.2812C162.875 25.4062 163.312 24.7812 163.812 24.4062C166.125 24.0312 168.531 24.0625 171.031 24.5C173.531 24.875 176.031 25.0312 178.531 24.9688C179.531 24.9062 180.531 24.7188 181.531 24.4062C182.531 24.0938 183.562 24.0938 184.625 24.4062C184.938 24.5312 185.469 24.75 186.219 25.0625C187.031 25.3125 187.594 25.5 187.906 25.625C188.219 25.6875 188.531 25.6875 188.844 25.625C189.156 25.5625 189.469 25.5625 189.781 25.625C190.281 25.625 190.75 25.7188 191.188 25.9062C191.688 26.0312 192.188 26.0938 192.688 26.0938C193.312 26.0938 193.75 26.0938 194 26.0938C194.312 26.0312 194.562 25.9688 194.75 25.9062C195 25.8438 195.25 25.7812 195.5 25.7188C195.75 25.5938 196.156 25.5 196.719 25.4375C197.219 25.375 197.719 25.4062 198.219 25.5312C198.719 25.6562 199.219 25.7188 199.719 25.7188C201.094 25.7812 202.406 25.625 203.656 25.25C204.969 24.8125 206.25 24.5312 207.5 24.4062C208.188 24.3438 208.875 24.3438 209.562 24.4062C210.312 24.4062 211 24.5938 211.625 24.9688Z" stroke="#00610A" stroke-width="5"/>
            <path d="M242.281 25.0625C242.781 25.1875 243.281 25.25 243.781 25.25C244.281 25.25 244.781 25.3125 245.281 25.4375C245.469 25.4375 245.656 25.5 245.844 25.625C246.031 25.75 246.219 25.8438 246.406 25.9062C246.594 25.9688 246.781 25.9688 246.969 25.9062C247.156 25.8438 247.344 25.8438 247.531 25.9062C248.969 26.2812 250.125 26.875 251 27.6875C251.875 28.4375 252.75 29.375 253.625 30.5C254 31.125 254.469 31.875 255.031 32.75C255.594 33.5625 256.062 34.5 256.438 35.5625C256.812 36.5625 257.031 37.625 257.094 38.75C257.156 39.875 256.938 41 256.438 42.125C256.312 42.4375 256.125 42.8438 255.875 43.3438C255.625 43.7812 255.375 44.25 255.125 44.75C254.75 45.4375 254.281 46.1562 253.719 46.9062C253.156 47.6562 252.562 48.1875 251.938 48.5C251.438 48.8125 251 49.0938 250.625 49.3438C250.312 49.5938 249.906 49.8438 249.406 50.0938C248.531 50.4062 247.656 50.875 246.781 51.5C245.969 52.0625 245.125 52.5312 244.25 52.9062C243.938 53.0312 243.594 53.125 243.219 53.1875C242.906 53.1875 242.594 53.25 242.281 53.375C241.844 53.625 241.5 53.9688 241.25 54.4062C241 54.8438 240.531 55.1562 239.844 55.3438C241.406 55.7188 242.844 56.5938 244.156 57.9688C245.469 59.2812 246.469 60.6562 247.156 62.0938C247.469 62.9688 247.906 63.75 248.469 64.4375C249.031 65.125 249.281 65.9062 249.219 66.7812C249.656 67.1562 250 67.6562 250.25 68.2812C250.562 68.8438 250.812 69.4688 251 70.1562C251.188 70.8438 251.344 71.5625 251.469 72.3125C251.656 73 251.875 73.625 252.125 74.1875C252.5 75 252.906 75.6562 253.344 76.1562C253.781 76.7188 254.25 77.2188 254.75 77.6562C255.25 78.1562 255.75 78.6562 256.25 79.1562C256.75 79.7188 257.188 80.4062 257.562 81.2188C257.812 81.1562 258 81.0625 258.125 80.9375C258.312 80.875 258.562 80.875 258.875 80.9375C259.812 81.625 260.844 82.1562 261.969 82.5312C263.156 82.9062 264.594 83.2188 266.281 83.4688C267.719 83.7188 269.062 83.7812 270.312 83.6562C271.625 83.5938 272.969 83.4375 274.344 83.1875C274.781 83.125 275.312 82.9375 275.938 82.625C276.625 82.375 277.281 82.1562 277.906 81.9688C278.594 81.7812 279.188 81.6875 279.688 81.6875C280.188 81.75 280.438 82.0938 280.438 82.7188C280.438 83.1562 280.156 83.6875 279.594 84.3125C279.031 84.9375 278.531 85.4062 278.094 85.7188C277.031 86.4688 275.812 87.0625 274.438 87.5C273.062 87.9375 271.625 88.2812 270.125 88.5312C268.625 88.8438 267.094 89.0625 265.531 89.1875C263.969 89.3125 262.5 89.4062 261.125 89.4688C260.25 89.4688 259.438 89.3125 258.688 89C258 88.75 257.375 88.5625 256.812 88.4375C255.562 88.25 254.438 88.0312 253.438 87.7812C252.5 87.5312 251.594 87.1562 250.719 86.6562C249.969 86.2188 249.312 85.5938 248.75 84.7812C248.188 84.0312 247.406 83.5625 246.406 83.375C244.781 81.9375 243.156 80.4688 241.531 78.9688C239.906 77.5312 238.625 75.7188 237.688 73.5312C237.375 72.9688 237.031 72.4375 236.656 71.9375C236.281 71.375 236 70.7812 235.812 70.1562C235.625 69.7188 235.5 69.25 235.438 68.75C235.438 68.25 235.375 67.6875 235.25 67.0625C235.125 66.375 234.938 65.6562 234.688 64.9062C234.438 64.0938 234.188 63.3438 233.938 62.6562C233.875 62.4688 233.781 62.2812 233.656 62.0938C233.531 61.9062 233.438 61.7188 233.375 61.5312C233.25 61.1562 233.125 60.7188 233 60.2188C232.875 59.6562 232.656 59.2188 232.344 58.9062C232.031 58.6562 231.5 58.375 230.75 58.0625C230.062 57.75 229.469 57.5312 228.969 57.4062C228.281 57.2812 227.594 57.3125 226.906 57.5C226.281 57.6875 225.688 57.8125 225.125 57.875C224.312 58 223.531 58.0312 222.781 57.9688C222.031 57.8438 221.406 57.875 220.906 58.0625C220.031 58.375 219.312 59.1875 218.75 60.5C218.188 61.8125 217.844 63.1875 217.719 64.625C217.469 66.0625 217.094 67.4688 216.594 68.8438C216.094 70.1562 215.688 71.4375 215.375 72.6875C215.125 73.5 214.719 74.1562 214.156 74.6562C213.594 75.2188 212.812 75.4375 211.812 75.3125C211.312 75.25 210.906 75.1875 210.594 75.125C210.344 75.125 210 75 209.562 74.75C209.25 74.875 208.688 75.1562 207.875 75.5938C207.125 76.0938 206.594 76.4375 206.281 76.625C204.219 77.25 203.031 77.0938 202.719 76.1562C202.469 75.2188 202.594 73.7188 203.094 71.6562C203.406 70.3438 203.875 69.0625 204.5 67.8125C205.188 66.5625 205.656 65.5 205.906 64.625C206.031 64.0625 206.062 63.5625 206 63.125C206 62.625 205.969 62.1562 205.906 61.7188C205.844 61.2812 205.812 60.9062 205.812 60.5938C205.812 60.2188 205.938 59.875 206.188 59.5625C206.25 58.875 206.438 58.3438 206.75 57.9688C207.062 57.5312 207.281 56.9688 207.406 56.2812C207.531 55.6562 207.688 55 207.875 54.3125C208.062 53.625 208.188 52.9688 208.25 52.3438C208.312 51.5938 208.344 50.9062 208.344 50.2812C208.406 49.5938 208.625 48.8125 209 47.9375C209.312 47.125 209.625 46.3125 209.938 45.5C210.312 44.625 210.562 43.7812 210.688 42.9688C210.812 42.3438 210.875 41.7188 210.875 41.0938C210.938 40.4062 211.094 39.75 211.344 39.125C211.469 38.625 211.719 38.2188 212.094 37.9062C212.531 37.5938 212.812 37.1875 212.938 36.6875C213 36.3125 212.969 35.9688 212.844 35.6562C212.719 35.3438 212.719 35.0312 212.844 34.7188C213.219 33.4688 213.344 32.5 213.219 31.8125C213.094 31.0625 212.875 30.4688 212.562 30.0312C212.312 29.5312 212.062 29.0625 211.812 28.625C211.625 28.1875 211.625 27.5938 211.812 26.8438C212.125 26.7812 212.406 26.5312 212.656 26.0938C212.906 25.5938 213.25 25.2812 213.688 25.1562C213.938 25.0938 214.406 25.0625 215.094 25.0625C215.781 25 216.531 24.9688 217.344 24.9688C218.156 24.9062 218.938 24.9062 219.688 24.9688C220.438 24.9688 221.031 24.9688 221.469 24.9688C221.969 25.0312 222.594 25.0312 223.344 24.9688C224.094 24.8438 224.875 24.7812 225.688 24.7812C226.5 24.7188 227.25 24.6875 227.938 24.6875C228.688 24.6875 229.312 24.8125 229.812 25.0625H242.281ZM228.031 48.9688C228.531 48.9688 229 48.8438 229.438 48.5938C229.938 48.3438 230.406 48.2812 230.844 48.4062C231.469 48.5312 232.094 48.625 232.719 48.6875C233.344 48.75 234.031 48.8438 234.781 48.9688C235.094 49.0312 235.406 49 235.719 48.875C236.031 48.75 236.438 48.7188 236.938 48.7812C237.938 48.0312 238.812 47.4688 239.562 47.0938C240.375 46.7188 241.125 45.9688 241.812 44.8438C242.125 44.2812 242.469 43.75 242.844 43.25C243.219 42.6875 243.469 42.2188 243.594 41.8438C244.031 40.4062 243.969 39.1875 243.406 38.1875C242.844 37.125 242.312 36.1875 241.812 35.375C241.188 34.4375 240.594 33.7812 240.031 33.4062C239.469 32.9688 238.531 32.8125 237.219 32.9375C236.156 33 235.062 33 233.938 32.9375C232.812 32.8125 231.719 32.7812 230.656 32.8438C229.656 32.9062 228.75 33.0938 227.938 33.4062C227.125 33.7188 226.531 34.2812 226.156 35.0938C225.844 36.0312 225.469 37.0625 225.031 38.1875C224.594 39.3125 224.188 40.4688 223.812 41.6562C223.438 42.7812 223.125 43.9375 222.875 45.125C222.625 46.3125 222.5 47.4688 222.5 48.5938C223.438 48.4688 224.375 48.5312 225.312 48.7812C226.25 48.9688 227.156 49.0312 228.031 48.9688Z" stroke="#00610A" stroke-width="5"/>
            <path d="M259.812 69.2188C259.938 67.7812 260.406 66.5 261.219 65.375C262.094 64.1875 262.75 62.9688 263.188 61.7188C263.438 60.9062 263.594 60.0625 263.656 59.1875C263.781 58.25 263.844 57.3438 263.844 56.4688C263.906 55.5312 264 54.625 264.125 53.75C264.25 52.8125 264.469 51.9062 264.781 51.0312C264.469 50.4688 264.344 49.8438 264.406 49.1562C264.469 48.4688 264.5 47.75 264.5 47C264.812 46.5625 265.062 46.0625 265.25 45.5C265.438 44.9375 265.875 44.5625 266.562 44.375C267.188 43 267.5 41.5938 267.5 40.1562C267.5 38.6562 267.656 37.125 267.969 35.5625C268.031 35.25 268.156 34.9688 268.344 34.7188C268.531 34.4688 268.688 34.1875 268.812 33.875C269.25 32.5625 269.469 31.1875 269.469 29.75C269.469 28.25 269.719 26.8438 270.219 25.5312C270.594 25.4062 271.062 25.2188 271.625 24.9688C272.188 24.6562 272.75 24.375 273.312 24.125C273.938 23.8125 274.531 23.5625 275.094 23.375C275.656 23.1875 276.156 23.125 276.594 23.1875C276.906 23.3125 277.219 23.5 277.531 23.75C277.844 23.9375 278.219 24.1875 278.656 24.5C278.969 24.6875 279.25 24.9062 279.5 25.1562C279.812 25.4062 280.125 25.625 280.438 25.8125C280.688 25.9375 281 26.0625 281.375 26.1875C281.812 26.25 282.094 26.3438 282.219 26.4688C282.281 26.5312 282.469 26.75 282.781 27.125C283.156 27.5 283.5 27.9062 283.812 28.3438C284.188 28.7812 284.531 29.2188 284.844 29.6562C285.156 30.0312 285.344 30.2812 285.406 30.4062C285.469 30.7812 285.438 31.2188 285.312 31.7188C285.188 32.1562 285 32.625 284.75 33.125C284.562 33.5625 284.344 34.0312 284.094 34.5312C283.906 34.9688 283.75 35.375 283.625 35.75C283.438 36.4375 283.25 37.125 283.062 37.8125C282.875 38.4375 282.625 39.0938 282.312 39.7812C282 40.5938 281.656 41.5312 281.281 42.5938C280.906 43.6562 280.656 44.7812 280.531 45.9688C280.406 46.8438 280.062 47.5 279.5 47.9375C279 48.375 278.656 49 278.469 49.8125C278.344 50.375 278.281 50.9688 278.281 51.5938C278.281 52.2188 278.281 52.8438 278.281 53.4688C278.344 54.0312 278.344 54.5938 278.281 55.1562C278.281 55.7188 278.156 56.25 277.906 56.75C277.719 57.0625 277.438 57.3125 277.062 57.5C276.688 57.625 276.375 57.8438 276.125 58.1562C275.75 58.7812 275.406 59.5625 275.094 60.5C274.844 61.4375 274.625 62.4375 274.438 63.5C274.25 64.5 274.156 65.5312 274.156 66.5938C274.219 67.5938 274.406 68.5 274.719 69.3125C274.406 70.3125 273.844 71.1875 273.031 71.9375C272.281 72.6875 271.375 73.2812 270.312 73.7188C269.25 74.0938 268.094 74.2812 266.844 74.2812C265.656 74.3438 264.438 74.1562 263.188 73.7188C262.688 72.9688 262.094 72.2812 261.406 71.6562C260.719 70.9688 260.188 70.1562 259.812 69.2188Z" stroke="#00610A" stroke-width="5"/>
            <path d="M305.094 66.4062C305.719 66.4062 306.469 66.5312 307.344 66.7812C308.281 67.0312 309.094 67.1875 309.781 67.25C310.531 67.375 311.125 67.4062 311.562 67.3438C312 67.2812 312.406 67.2188 312.781 67.1562C313.219 67.0312 313.625 66.9375 314 66.875C314.438 66.75 315 66.6875 315.688 66.6875C316.188 66.625 316.719 66.625 317.281 66.6875C317.906 66.75 318.375 66.7188 318.688 66.5938C319.438 66.3438 320.156 65.875 320.844 65.1875C321.594 64.5 322.219 63.8438 322.719 63.2188C324.031 61.9062 325.188 60.6875 326.188 59.5625C327.25 58.375 328.594 57.25 330.219 56.1875C330.594 55.8125 330.969 55.3438 331.344 54.7812C331.781 54.1562 332.219 53.625 332.656 53.1875C333.156 52.6875 333.656 52.3125 334.156 52.0625C334.719 51.8125 335.344 51.875 336.031 52.25C335.781 52.9375 335.656 53.625 335.656 54.3125C335.656 54.9375 335.375 55.5625 334.812 56.1875C334.312 56.8125 333.75 57.4062 333.125 57.9688C332.562 58.5312 332.062 59.25 331.625 60.125C331.438 60.625 331.312 61.0312 331.25 61.3438C331.188 61.5938 331.031 61.9688 330.781 62.4688C330.594 62.9062 330.406 63.2812 330.219 63.5938C330.094 63.9062 329.938 64.3125 329.75 64.8125C329.062 66.4375 328.312 68.0312 327.5 69.5938C326.688 71.0938 325.844 72.5625 324.969 74C324.281 74.3125 323.469 74.4375 322.531 74.375C321.656 74.3125 320.906 74.2812 320.281 74.2812C318.844 74.2812 317.406 74.3125 315.969 74.375C314.531 74.5 313.031 74.625 311.469 74.75C311.031 74.8125 310.719 74.875 310.531 74.9375C310.406 75 310.281 75.0625 310.156 75.125C310.031 75.1875 309.875 75.2188 309.688 75.2188C309.5 75.2812 309.188 75.3125 308.75 75.3125C308.5 75.25 308.219 75.1875 307.906 75.125C307.656 75.0625 307.375 75 307.062 74.9375C304.688 74.75 302.5 74.5938 300.5 74.4688C298.562 74.3438 296.5 74.25 294.312 74.1875C293.125 74.1875 292.062 74.3438 291.125 74.6562C290.25 75.0312 289.188 75.2188 287.938 75.2188C287.312 75.2812 286.688 75.1875 286.062 74.9375C285.438 74.75 284.812 74.75 284.188 74.9375C283.812 74.6875 283.406 74.4688 282.969 74.2812C282.531 74.0938 282.219 73.8125 282.031 73.4375C282.281 72.5 282.719 71.6562 283.344 70.9062C283.969 70.1562 284.656 69.4688 285.406 68.8438C286.156 68.1562 286.906 67.5 287.656 66.875C288.469 66.25 289.188 65.5938 289.812 64.9062C289.875 64.6562 289.906 64.1875 289.906 63.5C290.344 63.1875 290.625 62.8438 290.75 62.4688C290.938 62.0938 291.219 61.7188 291.594 61.3438C291.906 61.0312 292.219 60.8125 292.531 60.6875C292.906 60.5 293.219 60.25 293.469 59.9375C293.656 59.6875 293.781 59.4375 293.844 59.1875C293.969 58.9375 294.125 58.6875 294.312 58.4375C294.625 58 295.031 57.625 295.531 57.3125C296.094 57 296.594 56.5938 297.031 56.0938C297.656 55.4062 298.25 54.6562 298.812 53.8438C299.375 53.0312 299.969 52.2812 300.594 51.5938C300.906 51.2812 301.25 51 301.625 50.75C302.062 50.5 302.438 50.2188 302.75 49.9062C303.75 49.0938 304.625 48.2188 305.375 47.2812C306.125 46.3438 306.906 45.625 307.719 45.125C308.094 44.9375 308.469 44.7812 308.844 44.6562C309.281 44.4688 309.656 44.2812 309.969 44.0938C310.281 43.8438 310.5 43.5625 310.625 43.25C310.812 42.875 310.812 42.375 310.625 41.75C311.188 41.375 311.625 40.9062 311.938 40.3438C312.25 39.7812 312.594 39.25 312.969 38.75C313.281 38.3125 313.625 37.9688 314 37.7188C314.438 37.4688 314.812 37.1562 315.125 36.7812C315.875 35.9688 316.5 35.1875 317 34.4375C317.562 33.625 318.094 32.75 318.594 31.8125C318.031 31.625 317.469 31.375 316.906 31.0625C314.969 31.1875 313.344 31.2188 312.031 31.1562C310.719 31.0938 309.562 31.125 308.562 31.25C307.562 31.3125 306.594 31.5312 305.656 31.9062C304.781 32.2812 303.812 33 302.75 34.0625C302.312 34.5 301.938 34.875 301.625 35.1875C301.312 35.5 300.906 35.9375 300.406 36.5C299.344 37.5 298.469 38.3438 297.781 39.0312C297.094 39.7188 296.25 40.6562 295.25 41.8438C294.75 42.3438 294.188 42.875 293.562 43.4375C292.938 43.9375 292.188 44 291.312 43.625C291.125 42.8125 291.281 42.125 291.781 41.5625C292.281 40.9375 292.688 40.2812 293 39.5938C293.375 38.9688 293.594 38.4688 293.656 38.0938C293.719 37.6562 293.906 37.125 294.219 36.5C294.469 36 294.75 35.6562 295.062 35.4688C295.375 35.2188 295.594 34.75 295.719 34.0625C295.781 33.75 295.781 33.4688 295.719 33.2188C295.656 32.9062 295.688 32.5938 295.812 32.2812C295.938 31.6562 296.094 31.125 296.281 30.6875C296.531 30.25 296.781 29.625 297.031 28.8125C297.344 27.5625 297.719 26.4062 298.156 25.3438C298.656 24.2812 299.562 23.6562 300.875 23.4688C301.938 23.2812 303 23.375 304.062 23.75C305.125 24.125 306.062 24.375 306.875 24.5C307.375 24.5625 307.906 24.5625 308.469 24.5C309.031 24.4375 309.562 24.4062 310.062 24.4062C310.438 24.4688 310.594 24.5625 310.531 24.6875C310.531 24.75 310.688 24.8125 311 24.875C311.688 24.9375 312.312 24.9062 312.875 24.7812C313.438 24.5938 314.031 24.4688 314.656 24.4062C315.594 24.5938 316.594 24.6562 317.656 24.5938C318.781 24.4688 319.719 24.4688 320.469 24.5938C320.781 24.5938 321.094 24.6875 321.406 24.875C321.781 25 322.125 25.0938 322.438 25.1562C322.75 25.1562 323.031 25.125 323.281 25.0625C323.594 24.9375 323.969 24.875 324.406 24.875C326.031 24.6875 327.75 24.5625 329.562 24.5C331.375 24.375 333.094 24.1875 334.719 23.9375C335.406 23.875 336.031 23.7812 336.594 23.6562C337.219 23.4688 337.719 23.3438 338.094 23.2812C338.469 23.2188 338.938 23.1562 339.5 23.0938C340.062 23.0312 340.594 23.0312 341.094 23.0938C341.594 23.0938 342.031 23.1875 342.406 23.375C342.844 23.5625 343.094 23.8438 343.156 24.2188C343.219 24.9062 342.875 25.7188 342.125 26.6562C341.375 27.5938 340.719 28.375 340.156 29C339.406 29.6875 338.656 30.3438 337.906 30.9688C337.219 31.5312 336.562 32.0938 335.938 32.6562C335.438 33.0312 335 33.4688 334.625 33.9688C334.25 34.4688 333.875 34.875 333.5 35.1875C333.125 35.5 332.688 35.7812 332.188 36.0312C331.75 36.2188 331.344 36.4375 330.969 36.6875C330.281 37.1875 329.688 37.7812 329.188 38.4688C328.688 39.0938 328.094 39.75 327.406 40.4375C326.219 41.6875 325.094 42.875 324.031 44C322.969 45.125 321.938 46.5 320.938 48.125C320.5 48.8125 320.094 49.5938 319.719 50.4688C319.344 51.3438 318.906 52.0625 318.406 52.625C318.094 52.875 317.719 53.0625 317.281 53.1875C316.906 53.25 316.562 53.375 316.25 53.5625C315.188 54.125 314.156 55.0312 313.156 56.2812C312.219 57.4688 311.375 58.5625 310.625 59.5625C309.812 60.8125 308.875 62 307.812 63.125C306.75 64.1875 305.844 65.2812 305.094 66.4062Z" stroke="#00610A" stroke-width="5"/>
            <path d="M400.906 25.25C400.594 25.375 400.219 25.4688 399.781 25.5312C399.344 25.5312 398.969 25.625 398.656 25.8125C398.531 26.3125 398.406 26.8125 398.281 27.3125C398.219 27.8125 398.25 28.3125 398.375 28.8125C397.75 30.25 396.969 31.6875 396.031 33.125C395.156 34.5625 394.281 35.8438 393.406 36.9688C392.781 39.2188 392.188 41.3125 391.625 43.25C391.125 45.125 390.875 47.4375 390.875 50.1875C390.75 50.5 390.625 50.8438 390.5 51.2188C390.375 51.5938 390.312 52.0312 390.312 52.5312C390.312 52.9062 390.406 53.25 390.594 53.5625C390.844 53.875 390.969 54.2188 390.969 54.5938C391.094 55.1562 391 55.7188 390.688 56.2812C390.438 56.8438 390.312 57.4062 390.312 57.9688C390.312 58.4062 390.406 58.7812 390.594 59.0938C390.781 59.4062 390.812 59.7812 390.688 60.2188C391.5 61.0938 392.312 61.7812 393.125 62.2812C394 62.7812 394.75 63.5625 395.375 64.625C395.562 64.625 395.844 64.75 396.219 65C396.656 65.25 397.125 65.5312 397.625 65.8438C398.125 66.0938 398.656 66.375 399.219 66.6875C399.844 66.9375 400.406 67.0938 400.906 67.1562C401.656 67.2188 402.312 67.2188 402.875 67.1562C403.438 67.0312 404.25 66.9062 405.312 66.7812C408.062 66.4688 410.5 65.5938 412.625 64.1562C414.75 62.7188 416.438 61.1875 417.688 59.5625C417.688 58.3125 417.812 57.25 418.062 56.375C418.312 55.5 418.688 54.625 419.188 53.75C419.5 53.25 419.844 52.8438 420.219 52.5312C420.594 52.2188 420.812 51.6875 420.875 50.9375C420.938 50.5625 420.938 50.1562 420.875 49.7188C420.875 49.2188 420.906 48.7188 420.969 48.2188C421.031 47.7188 420.906 47.25 420.594 46.8125C420.281 46.3125 420.062 45.9062 419.938 45.5938C419.812 45.0938 419.344 44.5312 418.531 43.9062C417.719 43.2812 417.062 42.7812 416.562 42.4062C416.125 42.0938 415.656 41.75 415.156 41.375C414.656 41 414.25 40.625 413.938 40.25C413.688 39.875 413.594 39.5 413.656 39.125C413.719 38.6875 414.125 38.3125 414.875 38C416.188 38.0625 417.594 38.1875 419.094 38.375C420.594 38.5625 422.125 38.75 423.688 38.9375C425.312 39.0625 426.906 39.1875 428.469 39.3125C430.031 39.4375 431.469 39.4375 432.781 39.3125C433.656 39.25 434.344 39.1875 434.844 39.125C435.344 39 435.781 38.9062 436.156 38.8438C436.531 38.7188 436.938 38.5938 437.375 38.4688C437.875 38.3438 438.531 38.2188 439.344 38.0938C439.844 38.0312 440.25 38.0312 440.562 38.0938C440.938 38.1562 441.281 38.1875 441.594 38.1875C442.031 38.0625 442.469 37.9062 442.906 37.7188C443.344 37.4688 443.812 37.3125 444.312 37.25C444.938 37.1875 445.469 37.1875 445.906 37.25C446.406 37.3125 446.844 37.4062 447.219 37.5312C447.656 37.6562 448.125 37.7812 448.625 37.9062C449.125 38.0312 449.719 38.125 450.406 38.1875C451.531 38.3125 452.375 38.4375 452.938 38.5625C453.562 38.6875 453.875 39.1875 453.875 40.0625C453.875 40.625 453.656 41.0312 453.219 41.2812C452.844 41.5312 452.344 41.7188 451.719 41.8438C451.156 41.9062 450.531 41.9688 449.844 42.0312C449.219 42.0312 448.625 42.0625 448.062 42.125C447.438 42.25 446.969 42.4062 446.656 42.5938C446.344 42.7188 446.094 42.875 445.906 43.0625C445.719 43.25 445.531 43.4688 445.344 43.7188C445.219 43.9062 444.969 44.0625 444.594 44.1875C444.219 44.3125 443.875 44.4688 443.562 44.6562C443.25 44.7812 442.906 44.9062 442.531 45.0312C441.719 45.3438 441.156 45.8438 440.844 46.5312C440.531 47.2188 440.125 47.9375 439.625 48.6875C439.125 49.25 438.844 49.75 438.781 50.1875C438.781 50.5625 438.594 51 438.219 51.5C437.594 52.4375 437 53.6562 436.438 55.1562C435.875 56.6562 435.375 58 434.938 59.1875C434.188 61.25 433.656 63.4375 433.344 65.75C433.094 68 432.719 70.1875 432.219 72.3125C432.031 73 431.906 73.7188 431.844 74.4688C431.844 75.2812 431.781 76.0625 431.656 76.8125C431.469 77.3125 431.25 77.8125 431 78.3125C430.812 78.875 430.688 79.4062 430.625 79.9062C430.5 80.4688 430.469 81 430.531 81.5C430.594 82.0625 430.531 82.625 430.344 83.1875C430.031 83.3125 429.656 83.4375 429.219 83.5625C428.844 83.6875 428.594 83.875 428.469 84.125C428.156 84.5625 428 85.2188 428 86.0938C428 87.0312 427.781 87.75 427.344 88.25C427.094 88.5625 426.656 88.8438 426.031 89.0938C425.469 89.4062 425 89.625 424.625 89.75C424.125 89.875 423.562 89.8438 422.938 89.6562C422.375 89.4688 421.75 89.4062 421.062 89.4688C420.188 89.5312 419.438 89.8438 418.812 90.4062C418.188 90.9688 417.469 91.4688 416.656 91.9062C416.156 92.2188 415.438 92.5 414.5 92.75C413.625 93 412.875 93.2812 412.25 93.5938C411.812 93.8438 411.375 94.0938 410.938 94.3438C410.562 94.5938 410.188 94.7812 409.812 94.9062C409.438 95.0312 409.062 95.0625 408.688 95C408.312 94.9375 407.938 94.6875 407.562 94.25C407.25 93.1875 407.219 92.2812 407.469 91.5312C407.781 90.7812 408.156 90.0938 408.594 89.4688C409.094 88.8438 409.594 88.2188 410.094 87.5938C410.594 86.9688 410.969 86.2188 411.219 85.3438C411.531 84.2812 411.719 83.2812 411.781 82.3438C411.906 81.4688 412.125 80.5938 412.438 79.7188C412.938 78.6562 413.562 77.6875 414.312 76.8125C415.062 75.9375 415.594 74.9062 415.906 73.7188C414.844 74.1562 413.688 74.6562 412.438 75.2188C411.25 75.8438 409.844 76.2812 408.219 76.5312C407.969 76.5938 407.719 76.5938 407.469 76.5312C407.219 76.5312 406.969 76.5312 406.719 76.5312C406.156 76.6562 405.625 76.7812 405.125 76.9062C404.625 77.0938 404.125 77.25 403.625 77.375C402.938 77.4375 402.406 77.4062 402.031 77.2812C401.719 77.2188 401.25 77.1875 400.625 77.1875C399.25 77.25 398.125 77.375 397.25 77.5625C396.375 77.75 395.344 77.7188 394.156 77.4688C393.469 77.3438 392.719 77.0938 391.906 76.7188C391.156 76.3438 390.406 76 389.656 75.6875C388.906 75.375 388.125 75.0938 387.312 74.8438C386.5 74.5938 385.781 74.3125 385.156 74C384.094 73.5 383.031 72.9062 381.969 72.2188C380.969 71.5312 379.844 71 378.594 70.625C377.344 69 376.125 67.0312 374.938 64.7188C373.75 62.4062 373 60.0938 372.688 57.7812C372.625 57.2188 372.625 56.6562 372.688 56.0938C372.75 55.4688 372.719 54.875 372.594 54.3125C372.469 54 372.281 53.6875 372.031 53.375C371.844 53.0625 371.688 52.75 371.562 52.4375C371.375 52 371.188 51.375 371 50.5625C370.875 49.75 370.75 49.0312 370.625 48.4062C370.312 45.7812 370.344 43.1875 370.719 40.625C371.094 38 371.719 35.625 372.594 33.5C372.656 33.3125 372.781 33.1562 372.969 33.0312C373.156 32.8438 373.312 32.625 373.438 32.375C373.562 32.0625 373.625 31.7812 373.625 31.5312C373.625 31.2188 373.688 30.9688 373.812 30.7812C374.188 30.0938 374.5 29.375 374.75 28.625C375 27.875 375.375 27.125 375.875 26.375C376.375 25.4375 376.875 24.4688 377.375 23.4688C377.875 22.4688 378.469 21.7188 379.156 21.2188C379.594 20.9688 380.031 20.75 380.469 20.5625C380.969 20.375 381.438 20.1875 381.875 20C382.312 19.75 382.688 19.4688 383 19.1562C383.375 18.7812 383.625 18.2812 383.75 17.6562C383.812 17.2812 383.75 16.9375 383.562 16.625C383.375 16.25 383.375 15.9062 383.562 15.5938C385.5 13.2188 388 11.1875 391.062 9.5C391.375 9.375 391.688 9.25 392 9.125C392.375 9 392.719 8.875 393.031 8.75C393.469 8.5 393.875 8.21875 394.25 7.90625C394.625 7.59375 395.094 7.375 395.656 7.25C396.719 6.9375 397.812 6.65625 398.938 6.40625C400.125 6.09375 401.344 5.84375 402.594 5.65625C403.031 5.59375 403.469 5.53125 403.906 5.46875C404.344 5.34375 404.75 5.21875 405.125 5.09375C405.75 5.03125 406.625 5.03125 407.75 5.09375C408.938 5.09375 410.156 5.125 411.406 5.1875C412.719 5.25 413.969 5.3125 415.156 5.375C416.406 5.375 417.375 5.3125 418.062 5.1875C418.5 5.0625 418.906 4.90625 419.281 4.71875C419.719 4.53125 420.188 4.40625 420.688 4.34375C421.75 4.28125 422.625 4.34375 423.312 4.53125C424.062 4.65625 425.094 4.78125 426.406 4.90625C427.219 4.96875 428 5.0625 428.75 5.1875C429.562 5.3125 430.406 5.40625 431.281 5.46875C432.344 5.53125 433.438 5.53125 434.562 5.46875C435.688 5.40625 436.781 5.375 437.844 5.375C438.906 5.375 439.938 5.4375 440.938 5.5625C442 5.6875 442.938 5.6875 443.75 5.5625C444.312 5.4375 444.844 5.25 445.344 5C445.844 4.75 446.375 4.65625 446.938 4.71875C447.438 4.84375 447.969 5.125 448.531 5.5625C449.094 6 449.375 6.46875 449.375 6.96875C449.375 7.53125 448.938 8.15625 448.062 8.84375C447.25 9.53125 446.562 10 446 10.25C444.188 11 442.219 11.5938 440.094 12.0312C437.969 12.4062 435.656 12.6875 433.156 12.875C432.344 12.9375 431.531 12.9688 430.719 12.9688C429.969 12.9688 429.25 13.0312 428.562 13.1562C428.188 13.2812 427.812 13.4375 427.438 13.625C427.125 13.75 426.812 13.875 426.5 14C425.625 14.25 424.688 14.375 423.688 14.375C422.75 14.375 421.812 14.4375 420.875 14.5625C419.062 14.75 417.062 15.0312 414.875 15.4062C412.75 15.7188 411.094 16.3438 409.906 17.2812C409.594 17.5312 409.156 17.7812 408.594 18.0312C408.031 18.2812 407.469 18.5625 406.906 18.875C406.344 19.125 405.781 19.4062 405.219 19.7188C404.719 19.9688 404.344 20.25 404.094 20.5625C403.344 21.3125 402.688 21.9688 402.125 22.5312C401.625 23.0938 401.219 24 400.906 25.25Z" stroke="#00610A" stroke-width="5"/>
            <path d="M467.75 31.25C468.938 30.4375 469.969 29.5 470.844 28.4375C471.719 27.375 472.562 26.3125 473.375 25.25C473.875 25.3125 474.312 25.2188 474.688 24.9688C475.062 24.7188 475.469 24.5312 475.906 24.4062C476.781 24.1562 477.656 24.1875 478.531 24.5C479.469 24.75 480.375 24.8438 481.25 24.7812C482.312 24.6562 483.312 24.375 484.25 23.9375C485.25 23.5 486.406 23.2812 487.719 23.2812C488.156 23.2812 488.562 23.4375 488.938 23.75C489.312 24 489.688 24.1562 490.062 24.2188C490.562 24.3438 491 24.2812 491.375 24.0312C491.812 23.7812 492.281 23.6562 492.781 23.6562C493.656 23.6562 494.312 23.9375 494.75 24.5C495.25 25.0625 495.812 25.625 496.438 26.1875C496.75 27.625 496.781 29.0312 496.531 30.4062C496.281 31.7812 496.219 33.1875 496.344 34.625C496.469 35.5625 496.594 36.4688 496.719 37.3438C496.906 38.2188 497 39.125 497 40.0625C497.062 40.875 497 41.75 496.812 42.6875C496.688 43.5625 496.656 44.4375 496.719 45.3125C496.781 45.625 496.875 45.9375 497 46.25C497.125 46.5625 497.156 46.875 497.094 47.1875C496.969 47.875 496.688 48.4062 496.25 48.7812C495.812 49.1562 495.562 49.6562 495.5 50.2812C495.375 51.2188 495.562 52.0938 496.062 52.9062C496.625 53.7188 496.969 54.5625 497.094 55.4375C497.156 55.8125 497.125 56.2188 497 56.6562C496.875 57.0938 496.812 57.5 496.812 57.875C496.688 59.25 496.688 60.7812 496.812 62.4688C497 64.1562 497.125 65.7188 497.188 67.1562C497.188 67.6562 497.219 68.1562 497.281 68.6562C497.406 69.1562 497.406 69.5625 497.281 69.875C497.219 70.1875 497.062 70.4375 496.812 70.625C496.625 70.8125 496.469 71.0312 496.344 71.2812C496.281 71.5938 496.281 72.0312 496.344 72.5938C496.469 73.1562 496.531 73.6875 496.531 74.1875C496.531 74.625 496.5 75.0312 496.438 75.4062C496.375 75.8438 496.344 76.2188 496.344 76.5312C496.406 76.7188 496.469 76.9062 496.531 77.0938C496.656 77.3438 496.688 77.5625 496.625 77.75C496.5 78.3125 496.062 78.9062 495.312 79.5312C494.625 80.2188 493.906 80.5312 493.156 80.4688C492.781 80.4062 492.219 80.0938 491.469 79.5312C490.781 79.0312 490.281 78.625 489.969 78.3125C489.406 77.625 489.062 76.75 488.938 75.6875C488.812 74.625 488.531 73.6562 488.094 72.7812C487.906 72.4688 487.625 72.1875 487.25 71.9375C486.938 71.625 486.656 71.2812 486.406 70.9062C486.031 70.2188 485.781 69.5312 485.656 68.8438C485.531 68.0938 485.438 67.375 485.375 66.6875C485.375 65.9375 485.344 65.2188 485.281 64.5312C485.219 63.7812 485.062 63.0312 484.812 62.2812C484.688 62.0312 484.5 61.8125 484.25 61.625C484 61.4375 483.781 61.1875 483.594 60.875C483.219 60.25 482.969 59.7188 482.844 59.2812C482.719 58.8438 482.312 58.5 481.625 58.25C479.438 58.25 477.219 58.1875 474.969 58.0625C472.781 57.9375 470.625 58 468.5 58.25C468 58.3125 467.562 58.4375 467.188 58.625C466.812 58.75 466.375 58.8438 465.875 58.9062C465.625 58.9062 465.375 58.875 465.125 58.8125C464.875 58.75 464.656 58.7188 464.469 58.7188C463.594 58.8438 462.75 59.25 461.938 59.9375C461.125 60.5625 460.5 61.1875 460.062 61.8125C459.812 62.1875 459.656 62.6562 459.594 63.2188C459.594 63.7188 459.5 64.2188 459.312 64.7188C459.125 65.2188 458.812 65.6875 458.375 66.125C457.938 66.5 457.781 67 457.906 67.625C457.219 68.125 456.625 68.75 456.125 69.5C455.688 70.25 455.25 71.0312 454.812 71.8438C454.375 72.5938 453.875 73.3125 453.312 74C452.812 74.6875 452.188 75.1875 451.438 75.5C451.125 75.625 450.812 75.7812 450.5 75.9688C450.25 76.1562 449.969 76.25 449.656 76.25C449.344 76.1875 449.156 76.0938 449.094 75.9688C449.094 75.8438 448.906 75.6562 448.531 75.4062C448.156 75.1562 447.719 74.875 447.219 74.5625C446.656 74.25 446.125 73.9062 445.625 73.5312C445.125 73.1562 444.688 72.7812 444.312 72.4062C443.875 71.9688 443.562 71.5625 443.375 71.1875C442.875 70.125 442.781 69.375 443.094 68.9375C443.406 68.4375 443.812 67.8438 444.312 67.1562C445 66.1562 445.781 65.0312 446.656 63.7812C447.531 62.5312 448.312 61.3438 449 60.2188C449.375 59.5938 449.688 59 449.938 58.4375C450.25 57.875 450.625 57.3438 451.062 56.8438C451.562 56.1562 452.188 55.5938 452.938 55.1562C453.75 54.7188 454.312 54.1562 454.625 53.4688C454.75 53.1562 454.812 52.8438 454.812 52.5312C454.812 52.1562 454.875 51.7812 455 51.4062C455.5 50.1562 456.281 49.0312 457.344 48.0312C458.406 47.0312 459.219 45.9062 459.781 44.6562C459.906 44.3438 459.969 44.0625 459.969 43.8125C460.031 43.5 460.125 43.1875 460.25 42.875C461.25 40.5625 462.469 38.5 463.906 36.6875C465.406 34.875 466.688 33.0625 467.75 31.25ZM480.875 30.9688C480.125 31.5312 479.469 32.1875 478.906 32.9375C478.406 33.625 477.719 34.1562 476.844 34.5312C476.594 35.0938 476.281 35.625 475.906 36.125C475.594 36.625 475.156 37.0312 474.594 37.3438C474.406 38.3438 474.031 39.2188 473.469 39.9688C472.906 40.6562 472.375 41.3438 471.875 42.0312C471.625 42.2812 471.406 42.5625 471.219 42.875C471.031 43.125 470.812 43.4062 470.562 43.7188C470.25 44.0312 469.938 44.2812 469.625 44.4688C469.312 44.5938 469.031 44.7812 468.781 45.0312C468.406 45.5312 468 46.2188 467.562 47.0938C467.125 47.9688 466.719 48.6875 466.344 49.25C466.031 49.5625 465.719 49.875 465.406 50.1875C465.094 50.5 465 50.9062 465.125 51.4062C465.312 51.9062 465.688 52.25 466.25 52.4375C466.812 52.5625 467.438 52.6562 468.125 52.7188C468.875 52.7188 469.594 52.6875 470.281 52.625C470.969 52.5625 471.531 52.5312 471.969 52.5312C472.844 52.5312 473.719 52.5625 474.594 52.625C475.531 52.625 476.406 52.5938 477.219 52.5312C478.094 52.4688 478.844 52.3125 479.469 52.0625C480.156 51.8125 480.688 51.4375 481.062 50.9375C481.688 48.9375 481.844 46.9375 481.531 44.9375C481.219 42.875 480.938 40.8438 480.688 38.8438C480.562 38.2812 480.469 37.6562 480.406 36.9688C480.344 36.2812 480.344 35.6562 480.406 35.0938C480.469 34.4688 480.656 33.875 480.969 33.3125C481.344 32.6875 481.406 31.9688 481.156 31.1562L480.875 30.9688Z" stroke="#00610A" stroke-width="5"/>
            <path d="M560.562 76.25C560.25 76.1875 560.094 75.9688 560.094 75.5938C560.094 75.2188 559.969 74.9688 559.719 74.8438C558.906 74.8438 558.25 74.8438 557.75 74.8438C557.312 74.9062 556.656 74.7812 555.781 74.4688C555.406 73.5938 555.219 72.6875 555.219 71.75C555.219 70.8125 555.375 69.9062 555.688 69.0312C555.812 68.6562 556 68.3438 556.25 68.0938C556.562 67.7812 556.781 67.4688 556.906 67.1562C556.969 66.8438 556.938 66.5 556.812 66.125C556.75 65.75 556.719 65.4062 556.719 65.0938C556.781 63.2188 557.188 61.375 557.938 59.5625C558.688 57.6875 559.219 55.8438 559.531 54.0312C559.594 53.5312 559.562 52.9375 559.438 52.25C559.312 51.5 559.312 50.875 559.438 50.375C559.562 49.8125 559.781 49.2812 560.094 48.7812C560.469 48.2812 560.719 47.7188 560.844 47.0938C561.094 45.8438 561.219 44.625 561.219 43.4375C561.281 42.1875 561.562 40.9688 562.062 39.7812C559.938 41.9688 558 44.2188 556.25 46.5312C554.5 48.7812 552.844 51.4062 551.281 54.4062C550.594 55.8438 549.75 57.1562 548.75 58.3438C547.75 59.4688 546.906 60.8125 546.219 62.375C546.094 62.6875 546.031 63 546.031 63.3125C546.031 63.5625 545.969 63.8438 545.844 64.1562C545.531 64.8438 545.094 65.5625 544.531 66.3125C544.031 67.0625 543.625 67.9062 543.312 68.8438C543.125 69.5312 542.906 70.2812 542.656 71.0938C542.469 71.9062 542.188 72.6875 541.812 73.4375C541.5 74.125 541.094 74.7188 540.594 75.2188C540.094 75.7188 539.438 76 538.625 76.0625C537.875 76.0625 537.25 75.9062 536.75 75.5938C536.312 75.3438 535.781 75.3125 535.156 75.5C534.219 74.8125 533.25 74.1875 532.25 73.625C531.312 73 530.562 72.0938 530 70.9062C529.375 69.7188 528.906 68.2188 528.594 66.4062C528.344 64.5312 528.031 62.8438 527.656 61.3438C527.531 60.8438 527.344 60.375 527.094 59.9375C526.906 59.4375 526.781 59 526.719 58.625C526.656 57.875 526.656 57.1562 526.719 56.4688C526.781 55.7188 526.75 55 526.625 54.3125C526.438 53.5625 526.031 52.9062 525.406 52.3438C524.844 51.7812 524.406 51.25 524.094 50.75C523.906 49.8125 523.781 48.8125 523.719 47.75C523.656 46.625 523.594 45.5312 523.531 44.4688C522.906 44.7188 522.531 45.2188 522.406 45.9688C522.281 46.7188 522.062 47.5312 521.75 48.4062C521.562 48.8438 521.344 49.25 521.094 49.625C520.906 50 520.781 50.3438 520.719 50.6562C520.656 51.0312 520.688 51.4062 520.812 51.7812C520.938 52.1562 520.969 52.5938 520.906 53.0938C520.844 53.4688 520.719 53.9375 520.531 54.5C520.406 55.0625 520.281 55.5938 520.156 56.0938C519.844 56.9688 519.469 57.8438 519.031 58.7188C518.594 59.5938 518.25 60.5625 518 61.625C517.625 62.6875 517.375 63.8438 517.25 65.0938C517.188 66.2812 517 67.3125 516.688 68.1875C516.562 68.5625 516.312 68.9062 515.938 69.2188C515.562 69.5312 515.188 69.9062 514.812 70.3438C514.438 70.7188 514.094 71.1562 513.781 71.6562C513.531 72.1562 513.406 72.7188 513.406 73.3438C512.719 73.8438 511.969 74.25 511.156 74.5625C510.406 74.9375 509.5 75.3125 508.438 75.6875C507.875 75.875 507.281 76 506.656 76.0625C506.094 76.125 505.562 76.0312 505.062 75.7812C504.562 75.5938 504.188 75.2188 503.938 74.6562C503.688 74.1562 503.625 73.4375 503.75 72.5C503.875 71.625 504.156 70.6875 504.594 69.6875C505.094 68.625 505.5 67.4688 505.812 66.2188C506.25 64.5938 506.625 63.125 506.938 61.8125C507.312 60.5 507.875 59.375 508.625 58.4375V56.6562C508.875 56.2188 509.094 55.8125 509.281 55.4375C509.469 55 509.75 54.625 510.125 54.3125C509.938 53.4375 509.875 52.5938 509.938 51.7812C510.062 50.9688 510.25 50.1875 510.5 49.4375C510.812 48.625 511.125 47.875 511.438 47.1875C511.75 46.4375 512.031 45.7188 512.281 45.0312C512.531 44.2812 512.688 43.625 512.75 43.0625C512.812 42.4375 513 41.875 513.312 41.375C513.438 41.125 513.656 40.9375 513.969 40.8125C514.281 40.625 514.531 40.375 514.719 40.0625C515.031 39.5 515.375 38.7188 515.75 37.7188C516.188 36.6562 516.469 35.8125 516.594 35.1875C516.781 34.625 516.844 34.0625 516.781 33.5C516.781 32.875 516.75 32.2812 516.688 31.7188C516.625 31.0938 516.594 30.5 516.594 29.9375C516.656 29.375 516.844 28.875 517.156 28.4375C517.344 28.125 517.656 27.8438 518.094 27.5938C518.594 27.3438 519 27.125 519.312 26.9375C520 26.5 520.656 26.1562 521.281 25.9062C521.906 25.5938 522.656 25.2812 523.531 24.9688C523.844 24.8438 524.188 24.7188 524.562 24.5938C524.938 24.4688 525.25 24.4062 525.5 24.4062C526.188 24.4062 526.812 24.625 527.375 25.0625C527.938 25.5 528.594 25.875 529.344 26.1875C529.656 26.3125 529.969 26.375 530.281 26.375C530.594 26.375 530.844 26.4062 531.031 26.4688C532.156 26.9688 533.156 27.5938 534.031 28.3438C534.906 29.0312 535.656 29.6875 536.281 30.3125C536.969 32.6875 537.281 35.1562 537.219 37.7188C537.219 40.2812 537.344 42.75 537.594 45.125C537.719 45.5 537.844 45.875 537.969 46.25C538.094 46.625 538.188 47 538.25 47.375C538.312 48.0625 538.281 48.7188 538.156 49.3438C538.094 49.9688 538.125 50.5938 538.25 51.2188C538.438 52.4688 538.75 53.5938 539.188 54.5938C539.688 55.5938 540.062 56.6875 540.312 57.875C540.938 57.5625 541.438 57.0938 541.812 56.4688C542.188 55.7812 542.531 55.125 542.844 54.5C543.469 53.1875 544.094 51.9688 544.719 50.8438C545.344 49.6562 546.094 48.5312 546.969 47.4688C547.656 46.5312 548.188 45.5 548.562 44.375C548.938 43.25 549.625 42.375 550.625 41.75C551 41.4375 551.406 41.25 551.844 41.1875C552.281 41.125 552.656 40.875 552.969 40.4375C553.281 38.0625 553.875 36.0312 554.75 34.3438C555.688 32.6562 556.75 31 557.938 29.375C558.438 28.75 559 27.9375 559.625 26.9375C560.312 25.875 560.969 25.2188 561.594 24.9688C562.156 24.7188 562.844 24.6875 563.656 24.875C564.531 25 565.312 25.0625 566 25.0625C566.938 25.0625 567.719 24.9375 568.344 24.6875C569.031 24.4375 569.656 24.1875 570.219 23.9375C570.844 23.6875 571.469 23.4688 572.094 23.2812C572.781 23.0938 573.594 23.0625 574.531 23.1875C574.656 23.0625 574.812 23 575 23C575.188 22.9375 575.375 22.8438 575.562 22.7188C576.125 22.9688 576.688 23.2812 577.25 23.6562C577.812 23.9688 578.312 24.375 578.75 24.875C579.25 25.3125 579.625 25.8438 579.875 26.4688C580.188 27.0312 580.312 27.6562 580.25 28.3438C580.25 28.6562 580.125 29 579.875 29.375C579.625 29.75 579.406 30.1875 579.219 30.6875C579.094 31.0625 578.938 31.4688 578.75 31.9062C578.562 32.3438 578.406 32.75 578.281 33.125C578.094 33.8125 578.125 34.5312 578.375 35.2812C578.625 35.9688 578.594 36.5312 578.281 36.9688C578.031 37.2812 577.688 37.5312 577.25 37.7188C576.875 37.9062 576.594 38.1875 576.406 38.5625C576.094 39 575.875 39.5625 575.75 40.25C575.688 40.9375 575.562 41.5625 575.375 42.125C575 43.375 574.625 44.5938 574.25 45.7812C573.938 46.9688 573.656 48.2188 573.406 49.5312C573.219 50.5938 573.031 51.625 572.844 52.625C572.719 53.625 572.312 54.375 571.625 54.875C571.438 55.875 571.344 56.875 571.344 57.875C571.406 58.8125 571.375 59.75 571.25 60.6875C571 62.5 570.5 64.25 569.75 65.9375C569 67.625 568.406 69.2812 567.969 70.9062C567.719 71.8438 567.5 72.6875 567.312 73.4375C567.188 74.125 566.812 74.75 566.188 75.3125C565.188 75.4375 564.219 75.625 563.281 75.875C562.344 76.125 561.438 76.25 560.562 76.25Z" stroke="#00610A" stroke-width="5"/>
            <path d="M629.656 30.2188C627.969 31.0312 626.281 31.4375 624.594 31.4375C622.906 31.4375 621.031 31.375 618.969 31.25C618.406 31.25 617.781 31.2812 617.094 31.3438C616.469 31.4062 615.875 31.4688 615.312 31.5312C612.375 31.8438 609.906 32.9688 607.906 34.9062C605.906 36.7812 604.438 39.1562 603.5 42.0312C603.188 43.0938 602.938 44.0625 602.75 44.9375C602.562 45.8125 602.969 46.3125 603.969 46.4375C604.594 46.5625 605.219 46.5625 605.844 46.4375C606.469 46.3125 607.094 46.1562 607.719 45.9688C608.406 45.7188 609.062 45.5 609.688 45.3125C610.312 45.125 610.938 45.0312 611.562 45.0312C611.812 45.0312 612.031 45.0938 612.219 45.2188C612.469 45.3438 612.719 45.4062 612.969 45.4062C614.031 45.5312 615.156 45.4688 616.344 45.2188C617.531 44.9062 618.625 44.875 619.625 45.125C619.812 45.1875 619.969 45.3125 620.094 45.5C620.281 45.625 620.531 45.75 620.844 45.875C621.656 46.1875 622.625 46.4062 623.75 46.5312C624.875 46.5938 625.781 46.7812 626.469 47.0938C626.781 47.2188 627.094 47.4688 627.406 47.8438C627.719 48.1562 627.875 48.375 627.875 48.5C627.875 49.1875 627.469 49.625 626.656 49.8125C625.844 50 625.156 50.125 624.594 50.1875C624.094 50.25 623.594 50.25 623.094 50.1875C622.594 50.125 622.094 50.1562 621.594 50.2812C620.719 50.4062 619.875 50.5938 619.062 50.8438C618.25 51.0312 617.375 51.2812 616.438 51.5938C615.375 51.9688 614.375 52.4375 613.438 53C612.5 53.5 611.469 53.8125 610.344 53.9375C609.531 54.0625 608.75 54.0625 608 53.9375C607.25 53.8125 606.438 53.8125 605.562 53.9375C605.25 54 604.938 54.0938 604.625 54.2188C604.375 54.3438 604.094 54.4375 603.781 54.5C603.219 54.625 602.781 54.7188 602.469 54.7812C602.219 54.7812 602 54.8438 601.812 54.9688C601.688 55.0938 601.531 55.2812 601.344 55.5312C601.219 55.7812 601 56.1562 600.688 56.6562C600.188 57.7812 599.875 59 599.75 60.3125C599.625 61.5625 599.5 62.9062 599.375 64.3438C600.062 65.0312 600.719 65.5938 601.344 66.0312C601.969 66.4062 602.938 66.5938 604.25 66.5938C604.938 66.5938 605.469 66.5312 605.844 66.4062C606.281 66.2188 606.844 66.0938 607.531 66.0312C608.219 66.0312 608.906 66.0938 609.594 66.2188C610.281 66.2812 611.062 66.2812 611.938 66.2188C613.75 66.0938 615.281 65.875 616.531 65.5625C617.781 65.1875 619.312 65.0625 621.125 65.1875C621.5 65.1875 622.156 65.2188 623.094 65.2812C624.094 65.3438 625.094 65.4375 626.094 65.5625C627.094 65.625 627.969 65.75 628.719 65.9375C629.531 66.125 629.938 66.375 629.938 66.6875C629.938 67.0625 629.688 67.4688 629.188 67.9062C628.75 68.2812 628.219 68.6562 627.594 69.0312C627.031 69.3438 626.438 69.625 625.812 69.875C625.25 70.0625 624.875 70.1875 624.688 70.25C623.625 70.5625 622.594 70.6562 621.594 70.5312C620.594 70.3438 619.5 70.3125 618.312 70.4375C617.438 70.5625 616.656 70.75 615.969 71C615.281 71.25 614.594 71.5312 613.906 71.8438C613.219 72.0938 612.5 72.375 611.75 72.6875C611.062 72.9375 610.25 73.0938 609.312 73.1562C608.062 73.2812 607 73.4375 606.125 73.625C605.25 73.75 604.219 73.9375 603.031 74.1875C602.531 74.3125 602.062 74.4375 601.625 74.5625C601.188 74.75 600.719 74.9062 600.219 75.0312C598.406 75.4062 596.438 75.4688 594.312 75.2188C592.25 75.0312 590 75.0625 587.562 75.3125C586 75.5 584.594 75.7188 583.344 75.9688C582.156 76.2812 580.938 76.375 579.688 76.25C579.25 76.1875 578.844 76.125 578.469 76.0625C578.031 76.0625 577.656 75.9062 577.344 75.5938C577.469 75.0938 577.75 74.6562 578.188 74.2812C578.625 73.9062 579.062 73.5625 579.5 73.25C579.938 72.875 580.344 72.5 580.719 72.125C581.156 71.6875 581.562 71.2812 581.938 70.9062C582.312 70.4062 582.625 69.8125 582.875 69.125C583.125 68.375 583.344 67.625 583.531 66.875C583.781 66.125 584.031 65.4375 584.281 64.8125C584.594 64.125 584.969 63.5312 585.406 63.0312C584.906 61.9062 584.906 60.625 585.406 59.1875C585.969 57.75 586.469 56.25 586.906 54.6875C587.031 54.3125 587.094 53.9375 587.094 53.5625C587.094 53.1875 587.156 52.8438 587.281 52.5312C587.406 51.9062 587.688 51.375 588.125 50.9375C588.562 50.4375 588.844 49.9375 588.969 49.4375C589.031 49.125 589.031 48.8125 588.969 48.5C588.969 48.1875 589 47.875 589.062 47.5625C589.188 46.625 589.406 45.75 589.719 44.9375C590.094 44.0625 590.344 43.2812 590.469 42.5938C590.594 42.0938 590.594 41.5938 590.469 41.0938C590.406 40.5312 590.406 40 590.469 39.5C590.594 38.25 590.844 37.0625 591.219 35.9375C591.656 34.8125 591.906 33.8125 591.969 32.9375C592.031 32.25 591.938 31.5 591.688 30.6875C591.438 29.875 591.188 29.25 590.938 28.8125C590.75 28.5 590.469 28.1875 590.094 27.875C589.719 27.5 589.344 27.1562 588.969 26.8438C588.594 26.5312 588.25 26.25 587.938 26C587.688 25.6875 587.562 25.4062 587.562 25.1562C587.625 24.4688 587.906 24.125 588.406 24.125C588.906 24.0625 589.375 23.8438 589.812 23.4688C592.062 23.5312 594.188 23.7812 596.188 24.2188C598.25 24.6562 600.375 24.9375 602.562 25.0625C603.375 25.1875 604.219 25.1875 605.094 25.0625C605.969 24.875 606.812 24.75 607.625 24.6875C608.938 24.625 610.406 24.8125 612.031 25.25C613.719 25.6875 615.375 25.8438 617 25.7188C619.188 25.5938 621.25 25.5312 623.188 25.5312C625.125 25.5312 627.156 25.4688 629.281 25.3438C629.656 25.6562 630.219 25.8125 630.969 25.8125C631.719 25.75 632.469 25.6875 633.219 25.625C634.031 25.5 634.75 25.4688 635.375 25.5312C636.062 25.5938 636.531 25.875 636.781 26.375C637.156 27.25 637.094 28 636.594 28.625C636.094 29.25 635.406 29.6562 634.531 29.8438C634.281 29.8438 633.938 29.875 633.5 29.9375C633.062 30 632.594 30.0625 632.094 30.125C631.594 30.1875 631.094 30.2188 630.594 30.2188C630.156 30.2188 629.844 30.2188 629.656 30.2188Z" stroke="#00610A" stroke-width="5"/>
            <path d="M674.375 25.0625C674.875 25.1875 675.375 25.25 675.875 25.25C676.375 25.25 676.875 25.3125 677.375 25.4375C677.562 25.4375 677.75 25.5 677.938 25.625C678.125 25.75 678.312 25.8438 678.5 25.9062C678.688 25.9688 678.875 25.9688 679.062 25.9062C679.25 25.8438 679.438 25.8438 679.625 25.9062C681.062 26.2812 682.219 26.875 683.094 27.6875C683.969 28.4375 684.844 29.375 685.719 30.5C686.094 31.125 686.562 31.875 687.125 32.75C687.688 33.5625 688.156 34.5 688.531 35.5625C688.906 36.5625 689.125 37.625 689.188 38.75C689.25 39.875 689.031 41 688.531 42.125C688.406 42.4375 688.219 42.8438 687.969 43.3438C687.719 43.7812 687.469 44.25 687.219 44.75C686.844 45.4375 686.375 46.1562 685.812 46.9062C685.25 47.6562 684.656 48.1875 684.031 48.5C683.531 48.8125 683.094 49.0938 682.719 49.3438C682.406 49.5938 682 49.8438 681.5 50.0938C680.625 50.4062 679.75 50.875 678.875 51.5C678.062 52.0625 677.219 52.5312 676.344 52.9062C676.031 53.0312 675.688 53.125 675.312 53.1875C675 53.1875 674.688 53.25 674.375 53.375C673.938 53.625 673.594 53.9688 673.344 54.4062C673.094 54.8438 672.625 55.1562 671.938 55.3438C673.5 55.7188 674.938 56.5938 676.25 57.9688C677.562 59.2812 678.562 60.6562 679.25 62.0938C679.562 62.9688 680 63.75 680.562 64.4375C681.125 65.125 681.375 65.9062 681.312 66.7812C681.75 67.1562 682.094 67.6562 682.344 68.2812C682.656 68.8438 682.906 69.4688 683.094 70.1562C683.281 70.8438 683.438 71.5625 683.562 72.3125C683.75 73 683.969 73.625 684.219 74.1875C684.594 75 685 75.6562 685.438 76.1562C685.875 76.7188 686.344 77.2188 686.844 77.6562C687.344 78.1562 687.844 78.6562 688.344 79.1562C688.844 79.7188 689.281 80.4062 689.656 81.2188C689.906 81.1562 690.094 81.0625 690.219 80.9375C690.406 80.875 690.656 80.875 690.969 80.9375C691.906 81.625 692.938 82.1562 694.062 82.5312C695.25 82.9062 696.688 83.2188 698.375 83.4688C699.812 83.7188 701.156 83.7812 702.406 83.6562C703.719 83.5938 705.062 83.4375 706.438 83.1875C706.875 83.125 707.406 82.9375 708.031 82.625C708.719 82.375 709.375 82.1562 710 81.9688C710.688 81.7812 711.281 81.6875 711.781 81.6875C712.281 81.75 712.531 82.0938 712.531 82.7188C712.531 83.1562 712.25 83.6875 711.688 84.3125C711.125 84.9375 710.625 85.4062 710.188 85.7188C709.125 86.4688 707.906 87.0625 706.531 87.5C705.156 87.9375 703.719 88.2812 702.219 88.5312C700.719 88.8438 699.188 89.0625 697.625 89.1875C696.062 89.3125 694.594 89.4062 693.219 89.4688C692.344 89.4688 691.531 89.3125 690.781 89C690.094 88.75 689.469 88.5625 688.906 88.4375C687.656 88.25 686.531 88.0312 685.531 87.7812C684.594 87.5312 683.688 87.1562 682.812 86.6562C682.062 86.2188 681.406 85.5938 680.844 84.7812C680.281 84.0312 679.5 83.5625 678.5 83.375C676.875 81.9375 675.25 80.4688 673.625 78.9688C672 77.5312 670.719 75.7188 669.781 73.5312C669.469 72.9688 669.125 72.4375 668.75 71.9375C668.375 71.375 668.094 70.7812 667.906 70.1562C667.719 69.7188 667.594 69.25 667.531 68.75C667.531 68.25 667.469 67.6875 667.344 67.0625C667.219 66.375 667.031 65.6562 666.781 64.9062C666.531 64.0938 666.281 63.3438 666.031 62.6562C665.969 62.4688 665.875 62.2812 665.75 62.0938C665.625 61.9062 665.531 61.7188 665.469 61.5312C665.344 61.1562 665.219 60.7188 665.094 60.2188C664.969 59.6562 664.75 59.2188 664.438 58.9062C664.125 58.6562 663.594 58.375 662.844 58.0625C662.156 57.75 661.562 57.5312 661.062 57.4062C660.375 57.2812 659.688 57.3125 659 57.5C658.375 57.6875 657.781 57.8125 657.219 57.875C656.406 58 655.625 58.0312 654.875 57.9688C654.125 57.8438 653.5 57.875 653 58.0625C652.125 58.375 651.406 59.1875 650.844 60.5C650.281 61.8125 649.938 63.1875 649.812 64.625C649.562 66.0625 649.188 67.4688 648.688 68.8438C648.188 70.1562 647.781 71.4375 647.469 72.6875C647.219 73.5 646.812 74.1562 646.25 74.6562C645.688 75.2188 644.906 75.4375 643.906 75.3125C643.406 75.25 643 75.1875 642.688 75.125C642.438 75.125 642.094 75 641.656 74.75C641.344 74.875 640.781 75.1562 639.969 75.5938C639.219 76.0938 638.688 76.4375 638.375 76.625C636.312 77.25 635.125 77.0938 634.812 76.1562C634.562 75.2188 634.688 73.7188 635.188 71.6562C635.5 70.3438 635.969 69.0625 636.594 67.8125C637.281 66.5625 637.75 65.5 638 64.625C638.125 64.0625 638.156 63.5625 638.094 63.125C638.094 62.625 638.062 62.1562 638 61.7188C637.938 61.2812 637.906 60.9062 637.906 60.5938C637.906 60.2188 638.031 59.875 638.281 59.5625C638.344 58.875 638.531 58.3438 638.844 57.9688C639.156 57.5312 639.375 56.9688 639.5 56.2812C639.625 55.6562 639.781 55 639.969 54.3125C640.156 53.625 640.281 52.9688 640.344 52.3438C640.406 51.5938 640.438 50.9062 640.438 50.2812C640.5 49.5938 640.719 48.8125 641.094 47.9375C641.406 47.125 641.719 46.3125 642.031 45.5C642.406 44.625 642.656 43.7812 642.781 42.9688C642.906 42.3438 642.969 41.7188 642.969 41.0938C643.031 40.4062 643.188 39.75 643.438 39.125C643.562 38.625 643.812 38.2188 644.188 37.9062C644.625 37.5938 644.906 37.1875 645.031 36.6875C645.094 36.3125 645.062 35.9688 644.938 35.6562C644.812 35.3438 644.812 35.0312 644.938 34.7188C645.312 33.4688 645.438 32.5 645.312 31.8125C645.188 31.0625 644.969 30.4688 644.656 30.0312C644.406 29.5312 644.156 29.0625 643.906 28.625C643.719 28.1875 643.719 27.5938 643.906 26.8438C644.219 26.7812 644.5 26.5312 644.75 26.0938C645 25.5938 645.344 25.2812 645.781 25.1562C646.031 25.0938 646.5 25.0625 647.188 25.0625C647.875 25 648.625 24.9688 649.438 24.9688C650.25 24.9062 651.031 24.9062 651.781 24.9688C652.531 24.9688 653.125 24.9688 653.562 24.9688C654.062 25.0312 654.688 25.0312 655.438 24.9688C656.188 24.8438 656.969 24.7812 657.781 24.7812C658.594 24.7188 659.344 24.6875 660.031 24.6875C660.781 24.6875 661.406 24.8125 661.906 25.0625H674.375ZM660.125 48.9688C660.625 48.9688 661.094 48.8438 661.531 48.5938C662.031 48.3438 662.5 48.2812 662.938 48.4062C663.562 48.5312 664.188 48.625 664.812 48.6875C665.438 48.75 666.125 48.8438 666.875 48.9688C667.188 49.0312 667.5 49 667.812 48.875C668.125 48.75 668.531 48.7188 669.031 48.7812C670.031 48.0312 670.906 47.4688 671.656 47.0938C672.469 46.7188 673.219 45.9688 673.906 44.8438C674.219 44.2812 674.562 43.75 674.938 43.25C675.312 42.6875 675.562 42.2188 675.688 41.8438C676.125 40.4062 676.062 39.1875 675.5 38.1875C674.938 37.125 674.406 36.1875 673.906 35.375C673.281 34.4375 672.688 33.7812 672.125 33.4062C671.562 32.9688 670.625 32.8125 669.312 32.9375C668.25 33 667.156 33 666.031 32.9375C664.906 32.8125 663.812 32.7812 662.75 32.8438C661.75 32.9062 660.844 33.0938 660.031 33.4062C659.219 33.7188 658.625 34.2812 658.25 35.0938C657.938 36.0312 657.562 37.0625 657.125 38.1875C656.688 39.3125 656.281 40.4688 655.906 41.6562C655.531 42.7812 655.219 43.9375 654.969 45.125C654.719 46.3125 654.594 47.4688 654.594 48.5938C655.531 48.4688 656.469 48.5312 657.406 48.7812C658.344 48.9688 659.25 49.0312 660.125 48.9688Z" stroke="#00610A" stroke-width="5"/>
<style>
#logo{
    position: absolute;
    top: 50%;
    left: 50%;
    transform: translate(-50%,-50%);
    animation: fill 2.9s ease forwards 3.5s
}
#logo path:nth-child(1){
    stroke-dasharray:589;
    stroke-dashoffset:589;
    animation: line-anim 2s ease forwards;
}
#logo path:nth-child(2){
    stroke-dasharray:278;
    stroke-dashoffset:278;
    animation: line-anim 2s ease forwards 0.3s;
}
#logo path:nth-child(3){
    stroke-dasharray:193;
    stroke-dashoffset:193;
    animation: line-anim 2s ease forwards 0.6s;
}
#logo path:nth-child(4){
    stroke-dasharray:360;
    stroke-dashoffset:360;
    animation: line-anim 2s ease forwards 0.9s;
}
#logo path:nth-child(5){
    stroke-dasharray:125;
    stroke-dashoffset:125;
    animation: line-anim 2s ease forwards 1.2s;
}
#logo path:nth-child(6){
    stroke-dasharray:319;
    stroke-dashoffset:319;
    animation: line-anim 2s ease forwards 1.5s;
}
#logo path:nth-child(7){
    stroke-dasharray:468;
    stroke-dashoffset:468;
    animation: line-anim 2s ease forwards 1.8s;
}
#logo path:nth-child(8){
    stroke-dasharray:278;
    stroke-dashoffset:278;
    animation: line-anim 2s ease forwards 2.1s;
}
#logo path:nth-child(9){
    stroke-dasharray:384;
    stroke-dashoffset:384;
    animation: line-anim 2s ease forwards 2.4s;
}
#logo path:nth-child(10){
    stroke-dasharray:302;
    stroke-dashoffset:302;
    animation: line-anim 2s ease forwards 2.7s;
}
#logo path:nth-child(11){
    stroke-dasharray:360;
    stroke-dashoffset:360;
    animation: line-anim 2s ease forwards 2.9s;
}

@keyframes line-anim{
    to{
        stroke-dashoffset:0;
    
    }
}
@keyframes fill{
    from{
        fill: transparent;
    }
    to{
        fill: white;
    }
}
</style>
        </svg>
       
